<svg width="180" height="180" viewBox="0 0 180 180" fill="none" xmlns="http://www.w3.org/2000/svg">
<path d="M17.671 115.143C13.0673 110.54 9.67923 107.15 7.22023 104.253C4.7726 101.37 3.33377 99.0746 2.56018 96.6937C1.14661 92.3432 1.14661 87.6568 2.56018 83.3063C3.33377 80.9254 4.7726 78.6297 7.22023 75.7466C9.67922 72.85 13.0673 69.4602 17.671 64.8566L64.8566 17.671C69.4602 13.0673 72.85 9.67923 75.7466 7.22023C78.6297 4.7726 80.9254 3.33377 83.3063 2.56018C87.6568 1.14661 92.3432 1.14661 96.6937 2.56018C99.0746 3.33377 101.37 4.7726 104.253 7.22023C107.15 9.67922 110.54 13.0673 115.143 17.671L162.329 64.8566C166.933 69.4602 170.321 72.85 172.78 75.7466C175.227 78.6297 176.666 80.9254 177.44 83.3063C178.853 87.6568 178.853 92.3432 177.44 96.6937C176.666 99.0746 175.227 101.37 172.78 104.253C170.321 107.15 166.933 110.54 162.329 115.143L115.143 162.329C110.54 166.933 107.15 170.321 104.253 172.78C101.37 175.227 99.0746 176.666 96.6937 177.44C92.3432 178.853 87.6568 178.853 83.3063 177.44C80.9254 176.666 78.6297 175.227 75.7466 172.78C72.85 170.321 69.4602 166.933 64.8566 162.329L17.671 115.143Z" stroke="white" stroke-width="3"/>
<g clip-path="url(#clip0_2_9)">
<path d="M116.602 71.2156C116.295 70.4246 115.629 69.8507 114.821 69.6805C113.995 69.5061 113.131 69.7725 112.512 70.3921L106.735 76.1684L103.915 73.3478L110.058 67.2043C110.698 66.5647 110.972 65.674 110.793 64.8216C110.618 63.9883 110.026 63.3017 109.21 62.9848C103.848 60.9021 97.7564 62.1842 93.6899 66.2505C91.5489 68.3916 90.151 71.095 89.646 74.0702C89.5381 74.5762 89.4335 75.1136 89.3229 75.682C88.677 79.0021 87.8732 83.1342 85.5162 85.4909L64.4133 106.594C61.8075 109.2 61.8075 113.44 64.4133 116.046C65.7163 117.349 67.4278 118 69.1392 118C70.8506 118 72.5622 117.349 73.865 116.046L94.9679 94.9428C97.3248 92.5858 101.457 91.7821 104.777 91.1361C105.345 91.0255 105.883 90.921 106.389 90.813C109.364 90.3081 112.067 88.9102 114.208 86.7691C114.84 86.1373 115.023 85.2798 114.762 84.5174C117.629 80.7195 118.342 75.6948 116.602 71.2156ZM114.058 71.9386C114.155 71.8424 114.269 71.7993 114.37 71.8209C114.458 71.8393 114.523 71.9021 114.564 72.0074C115.962 75.6076 115.479 79.6266 113.331 82.764L108.282 77.715L114.058 71.9386ZM112.662 85.2226C110.839 87.0457 108.536 88.2343 106.002 88.6601C105.986 88.6628 105.97 88.6658 105.955 88.6692C105.462 88.7747 104.926 88.8788 104.359 88.9891C100.747 89.6919 96.2506 90.5665 93.421 93.3961L72.3184 114.499C70.5656 116.252 67.7132 116.252 65.9601 114.499C64.2071 112.746 64.2071 109.894 65.9601 108.141L87.063 87.0377C89.8926 84.2082 90.7672 79.7123 91.47 76.0997C91.5804 75.5327 91.6845 74.9973 91.7899 74.5042C91.7933 74.4884 91.7964 74.4726 91.7991 74.4566C92.2246 71.9232 93.4133 69.6203 95.2367 67.797C97.5913 65.4423 100.745 64.1872 103.958 64.1872C105.457 64.1872 106.969 64.4607 108.418 65.0235C108.55 65.0747 108.629 65.1583 108.653 65.2719C108.68 65.4002 108.628 65.5407 108.512 65.6572L101.595 72.574C101.168 73.0011 101.168 73.6936 101.595 74.1208L112.668 85.1937C112.672 85.1975 112.675 85.2011 112.678 85.2045C112.674 85.2101 112.668 85.2159 112.662 85.2226Z" fill="white"/>
<path d="M100.048 75.668C99.8429 75.4629 99.5648 75.3477 99.2747 75.3477C98.9847 75.3477 98.7065 75.4629 98.5014 75.668L95.4082 78.7613C94.9811 79.1884 94.9811 79.8809 95.4082 80.3081L99.7754 84.6754C99.9805 84.8804 100.259 84.9957 100.549 84.9957C100.839 84.9957 101.117 84.8804 101.322 84.6754L104.415 81.5821C104.842 81.155 104.842 80.4625 104.415 80.0353L100.048 75.668ZM100.549 82.3552L97.7281 79.5346L99.2747 77.988L102.095 80.8085L100.549 82.3552Z" fill="white"/>
<path d="M69.9125 110.546C69.4853 110.119 68.7932 110.12 68.3661 110.547C67.939 110.974 67.9392 111.666 68.3663 112.093C68.5799 112.307 68.8598 112.414 69.1396 112.414C69.4195 112.414 69.6994 112.307 69.913 112.093C70.34 111.666 70.34 110.974 69.913 110.547L69.9125 110.546Z" fill="white"/>
<path d="M89.4691 89.4439L71.8462 107.067C71.4191 107.494 71.4191 108.186 71.8462 108.613C72.0598 108.827 72.3396 108.934 72.6195 108.934C72.8994 108.934 73.1792 108.827 73.3928 108.613L91.0158 90.9905C91.4428 90.5634 91.4428 89.8709 91.0158 89.4437C90.5886 89.0168 89.8963 89.0168 89.4691 89.4439Z" fill="white"/>
</g>
<defs>
<clipPath id="clip0_2_9">
<rect width="56" height="56" fill="white" transform="translate(62 62)"/>
</clipPath>
</defs>
</svg>
